<?xml version="1.0" encoding="utf-8"?>
<!-- Generator: Adobe Illustrator 18.1.0, SVG Export Plug-In . SVG Version: 6.00 Build 0)  -->
<svg version="1.1" id="Layer_1" xmlns="http://www.w3.org/2000/svg" xmlns:xlink="http://www.w3.org/1999/xlink" x="0px" y="0px"
	 viewBox="0 0 500 500" enable-background="new 0 0 500 500" xml:space="preserve">
<g>
	<path fill="#010101" d="M351.8,41.8V19.2c0-10.6-8.6-19.2-19.2-19.2s-19.2,8.6-19.2,19.2V313c-29.6-20.6-73.1-29.4-118.5-20.1
		C120.2,308,68.9,365.2,80.1,420.8s80.8,88.4,155.3,73.3c70.1-14.1,119.5-65.6,116-117.8c0.1-0.6,0.2-1.4,0.2-2V99.5
		c5.1-0.1,11,0.2,17.9,1.2c96.3,14,116.3,135.5,116.3,135.5C522.4,140.3,411.4,71.1,351.8,41.8z"/>
	<path fill="#010101" d="M140.8,268.2c6.2-0.6,10.9-6.2,10.2-12.5c-0.6-6.2-6.2-10.9-12.5-10.2C50.6,254.3,35.2,332.7,35,333.6
		c-1.1,6.2,3,12.2,9.2,13.4c0.7,0.1,1.4,0.1,2.1,0.1c5.4,0,10.2-3.9,11.2-9.4C57.8,336.9,69.9,275.2,140.8,268.2z"/>
	<path fill="#010101" d="M68.8,235.8c6.2-0.6,10.9-6.2,10.2-12.5c-0.6-6.2-6.2-11-12.5-10.2c-40.3,4-56.5,35-59.3,50.8
		c-1.1,6.1,3,12.1,9.1,13.2c0.7,0.1,1.5,0.2,2.1,0.2c5.4,0,10.1-3.7,11.2-9.2C29.9,266.9,35.8,239,68.8,235.8z"/>
	<path fill="#010101" d="M396.5,430.3c-6.4-0.5-11.7,4.2-12.2,10.5c-0.1,1.2-2.7,29.5-35.1,36.6c-6.1,1.4-10.1,7.5-8.7,13.6
		c1.1,5.4,5.9,9,11.2,9c0.7,0,1.6-0.1,2.5-0.2c39.6-8.6,52-41.3,53.1-57.3C407.5,436.1,402.8,430.8,396.5,430.3z"/>
</g>
</svg>
